# xmcd CD database file
#
# Track frame offsets:
#	150
#	38929
#	61903
#	102692
#	151841
#	187958
#	234068
#
# Disc length: 3558 seconds
#
# Revision: 0
# Processed by: cddbd v1.5PL3 Copyright (c) Steve Scherf et al.
# Submitted via: CDex 1.50
#
DISCID=4e0de407
DTITLE=noJazz and Ilhan Ersahin큦 Wonderland - JazzFest Berlin 2003
DYEAR=2003
DGENRE=Jazz
TTITLE0=noJazz - Medina
TTITLE1=noJazz - So Nice
TTITLE2=noJazz - Jump
TTITLE3=Ilhan Ersahin큦 Wonderland - Ask
TTITLE4=Ilhan Ersahin큦 Wonderland - Oriental Wind
TTITLE5=Ilhan Ersahin큦 Wonderland - Radio
TTITLE6=Ilhan Ersahin큦 Wonderland - Blue
EXTD=YEAR: 2003
EXTT0=
EXTT1=
EXTT2=
EXTT3=
EXTT4=
EXTT5=
EXTT6=
PLAYORDER=
